<?xml version="1.0" encoding="UTF-8"?>
<svg version="1.1" viewBox="0 0 1e3 1e3" xmlns="http://www.w3.org/2000/svg">
<rect width="1e3" height="1e3" fill="#100f0f"/>
<g transform="matrix(.7 0 0 .7 149.58 282.13)">
<svg width="1e3" height="623" data-background-color="#100f0f" viewBox="0 0 396 247" xmlns="http://www.w3.org/2000/svg" xmlns:xlink="http://www.w3.org/1999/xlink">
<g transform="translate(.24 -.1)">
<svg width="395.52" height="247.2" viewBox="0 0 395.52 247.2">
<svg/>
<svg width="395.52" height="247.2" viewBox="0 0 395.52 247.2">
<g transform="matrix(5.8485 0 0 5.8485 61.197 1)">
<svg class="icon-none" width="46.7" height="41.925" enable-background="new 0 0 90 90" fill="#fff" data-fill-palette-color="accent" version="1.1" viewBox="21.799999237060547 24.47500228881836 46.70000076293945 41.92499923706055" xml:space="preserve" xmlns="http://www.w3.org/2000/svg" xmlns:xlink="http://www.w3.org/1999/xlink"><path d="m64.5 33.2h-15l7.3-7.3c0.3-0.3 0.3-0.9 0-1.2s-0.9-0.3-1.2 0l-8.2 8.2-7.7-7.7c-0.3-0.3-0.9-0.3-1.2 0s-0.3 0.9 0 1.2l6.9 6.9h-19.6c-2.2 0-4 1.8-4 3.9v25.3c0 2.2 1.8 3.9 4 3.9h38.7c2.2 0 4-1.8 4-3.9v-25.3c0-2.2-1.8-4-4-4zm2.3 29.3c0 1.2-1 2.3-2.3 2.3h-38.7c-1.3 0-2.3-1-2.3-2.3v-25.3c0-1.2 1-2.3 2.3-2.3h38.7c1.3 0 2.3 1 2.3 2.3v25.3z" data-fill-palette-color="accent"/><path d="m39.2 56.4c0.3 0 0.6-0.2 0.8-0.5l4-8.9c0.1-0.3 0.1-0.6-0.1-0.8s-0.4-0.4-0.7-0.4h-0.2l3.6-7.8c0.1-0.3 0.1-0.6-0.1-0.8s-0.4-0.4-0.7-0.4h-14.6c-3.4 0-6.2 2.8-6.2 6.2v13.5c0 3.4 2.8 6.2 6.2 6.2h1.8c0.3 0 0.6-0.2 0.7-0.5l2.9-6h2.6zm-3.9-1.2-2.8 5.9h-1.3c-2.5 0-4.6-2-4.6-4.6v-13.4c0-2.5 2-4.6 4.6-4.6h13.3l-3.6 7.8c-0.1 0.3-0.1 0.6 0.1 0.8s0.4 0.4 0.7 0.4h0.2l-3.3 7.2h-2.5c-0.3 0-0.6 0.2-0.8 0.5z" data-fill-palette-color="accent"/><path d="m51.4 36.8h-2.5c-0.5 0-0.8 0.4-0.8 0.8s0.4 0.8 0.8 0.8h2.5c2.5 0 4.6 2 4.6 4.6v13.5c0 2.5-2 4.6-4.6 4.6h-15.2c-0.5 0-0.8 0.4-0.8 0.8s0.4 0.8 0.8 0.8h15.2c3.4 0 6.2-2.8 6.2-6.2v-13.4c0.1-3.5-2.7-6.3-6.2-6.3z" data-fill-palette-color="accent"/><path d="m62.1 44.5c-1.7 0-3.2 1.4-3.2 3.2s1.4 3.2 3.2 3.2c1.7 0 3.2-1.4 3.2-3.2s-1.4-3.2-3.2-3.2zm0 4.7c-0.8 0-1.5-0.7-1.5-1.5s0.7-1.5 1.5-1.5 1.5 0.7 1.5 1.5-0.6 1.5-1.5 1.5z" data-fill-palette-color="accent"/><path d="m62.1 37.1c-1.7 0-3.2 1.4-3.2 3.2 0 1.7 1.4 3.2 3.2 3.2 1.7 0 3.2-1.4 3.2-3.2s-1.4-3.2-3.2-3.2zm0 4.6c-0.8 0-1.5-0.7-1.5-1.5s0.7-1.5 1.5-1.5 1.5 0.7 1.5 1.5c0 0.9-0.6 1.5-1.5 1.5z" data-fill-palette-color="accent"/><path d="m64.4 57.9c-0.3-0.3-0.9-0.3-1.2 0l-1 1-1-1c-0.3-0.3-0.9-0.3-1.2 0s-0.3 0.9 0 1.2l1 1-1 1c-0.3 0.3-0.3 0.9 0 1.2 0.2 0.2 0.4 0.2 0.6 0.2s0.4-0.1 0.6-0.2l1-1 1 1c0.2 0.2 0.4 0.2 0.6 0.2s0.4-0.1 0.6-0.2c0.3-0.3 0.3-0.9 0-1.2l-1-1 1-1c0.3-0.3 0.3-0.9 0-1.2z" data-fill-palette-color="accent"/></svg>
</g>
<rect x="23.731" y="72.294" width="348.06" height="102.61" fill="#100f0f" data-fill-palette-color="quaternary"/>
<g transform="translate(39.552 88.749)">
<svg width="316.42" height="69.702" viewBox="0 0 316.416 69.70162086066229">
<svg width="316.42" height="69.702" viewBox="0 0 316.416 69.70162086066229">
<svg width="316.42" height="69.702" viewBox="0 0 316.416 69.70162086066229">
<svg width="316.42" height="69.702" viewBox="0 0 316.416 69.70162086066229">
<svg width="316.42" height="69.702" viewBox="0 0 316.416 69.70162086066229">
<g>
<svg width="316.42" height="69.702" data-palette-color="#ffffff" viewBox="0.7799999713897705 -33.18000030517578 152.60000610351562 33.619998931884766">
<path class="undefined-text-0" d="m15.55-14.72v-2.13q0-2.44-0.22-3.35-0.22-0.92-0.8-0.92-0.37 0-0.66 0.25 0.05 0.44 0.14 1.17 0.1 0.73 0.1 3.12v1.59q0 1.66-0.07 2.42-0.08 0.75-0.12 1.29-0.03 0.29-0.05 0.59 0.29 0.24 0.66 0.24 0.58 0 0.8-0.91 0.22-0.92 0.22-3.36zm-2.93 14.74h-6.17q-2.71 0-4.19-1.44t-1.48-4.34v-21.97q0-1.86 3.72-3.14 3.73-1.28 8.32-1.28 8.08 0 12.62 3.9 4.88 4.2 4.88 12.53 0 7.49-4.72 11.62-4.73 4.12-12.98 4.12zm32.96-16.06q0.19 0.2 0.61 0.2 0.41 0 0.71-0.18-0.64-3.71-0.86-4.39-0.27-0.71-0.8-0.71-0.25 0-0.59 0.15l0.93 4.93zm-4.84 7.32q-0.24 0.35-0.24 0.64 0 0.71 1.33 1.18 1.33 0.48 3.24 0.6 0.31 3.52 0.68 4.01-0.46 0.9-2.56 1.81-2.1 0.92-4.74 0.92-3.49 0-5.98-1.5t-2.49-3.87q0-0.64 0.12-1.12l5.2-23.25q1.95-1.24 4.66-1.95t5.64-0.71q4.2 0 7.18 1.42 3.39 1.61 4.13 4.66l5.56 23.02q-2.54 3.3-8.27 3.3-2.79 0-4.72-1-1.92-1-2.24-2.86l-0.54-2.98q1.47-0.02 2.83-0.56 1.37-0.54 1.37-1.12 0-0.39-0.32-0.64-0.92 0.66-2.27 1.01-1.34 0.34-2.49 0.34-3.29 0-5.08-1.35zm22.49 4.2v-24.46q0-1.27 2.04-2.11 2.03-0.84 4.79-0.84 1.57 0 2.95 0.37 1.37 0.38 2.11 0.97 1 1.27 1.83 2.59t3.73 6.15q0.27 0 0.49-0.17t0.22-0.53q0-0.35-0.61-1.38l-2.64-4.54v-1.34q1.25-1.02 3.03-1.59 1.78-0.56 3.69-0.56 3.1 0 5 1.13 2.22 1.34 2.22 4.19v23.12q0 2.1-2 3.06-1.71 0.85-4.56 0.85-1.59 0-3.09-0.34t-2.36-0.88q-1.73-2.22-3.44-4.98l-2.49-4.15q-0.71 0.1-0.71 0.76 0 0.41 0.71 1.58l3.05 4.93v1.3q-2.83 1.83-6.38 1.83t-5.57-1.29q-2.01-1.3-2.01-3.67zm32.2-7.27q2.07-2.08 4.95-2.08t5.01 2.08q2.07 2.12 2.07 5.02 0 2.89-2.07 4.96-2.1 2.05-5.01 2.05-2.9 0-4.97-2.06-2.06-2.06-2.06-4.95 0-2.9 2.08-5.02zm13.69 3.42v-7.06h1.51q1.23 0 1.23-0.81 0-0.09-0.05-0.29h-5.47q-0.54-1.71-0.54-3.82t0.32-3.43q1.39-0.88 3.83-2.68 0.68-1.67 1.78-5.28 0.15-0.49 0.34-0.95 1.91-0.49 4.35-0.49t4.81 0.51v5.99h4.22q1.42 2.14 1.42 5.05 0 1.32-0.37 2.71-0.36 1.39-1.05 2.37h-3.49v3.68q0 3.13 2.61 3.13h1.05q0.52 1.85 0.52 3.22 0 3.37-2.11 5.17-2.12 1.79-6.13 1.79-4.02 0-6.4-2.23-2.38-2.24-2.38-6.58zm29.95-3.57v0.59q0 0.41 0.03 0.58 0.29 0.13 0.56 0.13 0.71 0 0.71-0.96 0-2.49 0.58-9.37 0.32-3.74 0.39-4.4 2.3-1.53 5.51-1.53t4.97 1.7q1.56 1.57 1.56 4.06 0 1.68-0.46 3.49-2.27 8.76-4.52 13.79-1.2 2.61-3.64 3.57-1.8 0.73-5.15 0.73-1.78 0-3.53-0.29-1.74-0.3-2.67-0.69-3.54-7.22-5.83-15.99-0.76-0.76-1.3-2.12-0.54-1.37-0.54-2.83 0-3.03 1.47-5.2 0 0 6.08 0 3.2 0 4.76 1.8 1.17 1.37 1.51 3.98-0.49 4.54-0.49 8.96z" fill="#fff" data-fill-palette-color="primary"/>
</svg>
</g>
</svg>
</svg>
</svg>
</svg>
</svg>
</g>
</svg>
</svg>
<rect width="395.52" height="247.2" fill="none" visibility="hidden"/>
</g>
</svg>
</g>
</svg>
